# xmcd
#
# Track frame offsets:
#	150
#	10721
#	23867
#	42225
#	54206
#	65058
#
# Disc length: 951 seconds
#
# Revision: 1
# Processed by: cddbd v1.5.2PL0 Copyright (c) Steve Scherf et al.
# Submitted via: EasyCDDAExtractor 5.0.6
#
DISCID=4303b506
DTITLE=Born Ruffians - Born Ruffians EP
DYEAR=2006
DGENRE=Indie Rock
TTITLE0=This Sentence Will Ruin_Save Your Life
TTITLE1=Hedonistic Me
TTITLE2=Piecing it Together
TTITLE3=I'm One Of Those Girls
TTITLE4=Merry Little Fancy Things
TTITLE5=7th Son
EXTD=
EXTT0=
EXTT1=
EXTT2=
EXTT3=
EXTT4=
EXTT5=
PLAYORDER=
